<svg height="511pt" viewBox="0 1 511 511.99904" width="511pt" xmlns="http://www.w3.org/2000/svg"><path d="m340.042969 317.738281 35.261719-35.261719 137.1875 137.1875-35.261719 35.261719zm0 0"/><path d="m57.570312 35.261719 35.261719-35.261719 137.183594 137.1875-35.261719 35.261719zm0 0"/><path d="m318.394531 338.527344c-27.121093-18.128906-53.4375-39.886719-78.367187-64.816406-24.960938-24.960938-46.710938-51.273438-64.824219-78.371094l-138.855469-138.859375-13.96875 13.96875-.410156.429687c-26.640625 28.828125-28.550781 77.511719-5.378906 137.074219 21.742187 55.890625 63.472656 116.425781 117.5 170.453125 54.675781 54.675781 115.839844 96.644531 172.230468 118.179688 26.949219 10.292968 51.585938 15.414062 73.121094 15.414062 26.667969 0 48.582032-7.859375 64.203125-23.480469l12.371094-12.371093zm0 0"/></svg>