<svg height="432pt" viewBox="-18 0 432 432.62109" width="432pt" xmlns="http://www.w3.org/2000/svg"><path d="m395.550781 238.0625c0 84.828125-68.769531 153.597656-153.601562 153.597656-84.828125 0-153.597657-68.769531-153.597657-153.597656 0-84.832031 68.769532-153.601562 153.597657-153.601562 84.832031 0 153.601562 68.769531 153.601562 153.601562zm0 0" fill="#c1dbdc"/><path d="m16.671875 108.355469 36.988281 317.4375h19.742188l-27.070313-317.4375zm0 0" fill="#f53e28"/><path d="m73.402344 432.621094h-19.738282c-3.464843 0-6.382812-2.597656-6.78125-6.035156l-36.996093-317.441407c-.226563-1.933593.386719-3.875 1.679687-5.328125 1.296875-1.457031 3.15625-2.289062 5.101563-2.289062h29.660156c3.546875 0 6.5 2.714844 6.800781 6.246094l27.074219 317.441406c.160156 1.902344-.484375 3.789062-1.777344 5.195312-1.285156 1.410156-3.113281 2.210938-5.023437 2.210938zm-13.664063-13.652344h6.230469l-25.910156-303.789062h-15.71875zm0 0" fill="#4c241d"/><path d="m276.082031 108.355469h-29.660156l-27.070313 317.4375h19.738282zm0 0" fill="#f53e28"/><path d="m239.089844 432.621094h-19.742188c-1.910156 0-3.734375-.800782-5.023437-2.210938-1.296875-1.40625-1.9375-3.292968-1.777344-5.195312l27.070313-317.441406c.304687-3.53125 3.257812-6.246094 6.804687-6.246094h29.660156c1.945313 0 3.804688.832031 5.097657 2.289062 1.296874 1.457032 1.90625 3.394532 1.679687 5.328125l-36.992187 317.441407c-.398438 3.4375-3.316407 6.035156-6.777344 6.035156zm-12.308594-13.652344h6.230469l35.398437-303.789062h-15.71875zm0 0" fill="#4c241d"/><path d="m212.289062 108.355469h-165.957031l27.070313 317.4375h145.949218l27.070313-317.4375zm0 0" fill="#fff"/><path d="m219.347656 432.621094h-145.945312c-3.546875 0-6.5-2.714844-6.800782-6.246094l-27.074218-317.441406c-.160156-1.902344.484375-3.789063 1.777344-5.195313 1.289062-1.410156 3.117187-2.210937 5.027343-2.210937h200.089844c1.910156 0 3.738281.800781 5.027344 2.210937 1.292969 1.40625 1.9375 3.292969 1.777343 5.195313l-27.074218 317.441406c-.304688 3.53125-3.257813 6.246094-6.804688 6.246094zm-139.675781-13.652344h133.410156l25.910157-303.789062h-185.230469zm0 0" fill="#4c241d"/><path d="m299.976562 385.324219c-10.058593 0-17.066406 9.710937-17.066406 6.335937 0-5.65625-4.585937-10.238281-10.238281-10.238281-5.65625 0-4.789063 1.640625-4.789063-10.242187 0-12.433594-10.082031-22.515626-22.519531-22.515626-10.695312 0-19.605469 7.472657-21.902343 17.472657-3.101563-3.195313-7.425782-5.195313-12.230469-5.195313-9.425781 0-17.066407 7.640625-17.066407 17.066406 0 9.425782 7.640626 17.066407 17.066407 17.066407 1.566406 0 3.050781-.277344 4.488281-.671875-2.261719 3.195312-3.617188 7.078125-3.617188 11.292968 0 10.832032 8.777344 19.609376 19.609376 19.609376 8.527343 0 15.710937-5.476563 18.410156-13.078126 1.382812 7.4375 7.882812 13.078126 15.722656 13.078126 7.644531 0 14.019531-5.367188 15.613281-12.53125 2.960938 7.335937 10.121094 12.53125 18.519531 12.53125 11.039063 0 19.992188-8.949219 19.992188-19.992188 0-11.039062-8.953125-19.988281-19.992188-19.988281zm0 0" fill="#ffec95"/><path d="m299.976562 432.132812c-6.753906 0-13.042968-2.5-17.84375-6.792968-4.160156 4.242187-9.945312 6.792968-16.289062 6.792968-6.359375 0-12.195312-2.628906-16.375-6.933593-4.757812 4.355469-11.054688 6.933593-17.757812 6.933593-14.578126 0-26.4375-11.859374-26.4375-26.4375 0-1.503906.125-2.992187.382812-4.449218-10.496094-2.519532-18.316406-11.984375-18.316406-23.238282 0-13.171874 10.71875-23.890624 23.890625-23.890624 3.175781 0 6.246093.613281 9.089843 1.789062 5.191407-8.582031 14.535157-14.066406 25.042969-14.066406 16.179688 0 29.34375 13.164062 29.34375 29.34375l-.027343 3.527344c5.085937.601562 9.496093 3.449218 12.207031 7.515624 3.410156-1.910156 7.871093-3.730468 13.089843-3.730468 14.785157 0 26.816407 12.03125 26.816407 26.816406 0 14.789062-12.03125 26.820312-26.816407 26.820312zm-18.515624-26.183593c2.761718 0 5.277343 1.675781 6.324218 4.273437 2.023438 5.015625 6.808594 8.253906 12.191406 8.253906 7.257813 0 13.164063-5.90625 13.164063-13.164062 0-7.253906-5.90625-13.160156-13.164063-13.160156-3.796874 0-7.328124 2.449218-9.910156 4.238281-2.527344 1.742187-5.980468 4.132813-10.078125 1.984375-2.445312-1.28125-3.90625-3.792969-3.90625-6.714844 0-1.886718-1.527343-3.414062-3.410156-3.414062l-1.527344.039062c-1.851562.105469-4.945312.210938-7.488281-2.257812-2.726562-2.644532-2.691406-5.71875-2.632812-10.808594l.03125-4.039062c0-8.648438-7.042969-15.691407-15.691407-15.691407-7.332031 0-13.605469 5.007813-15.25 12.175781-.558593 2.441407-2.410156 4.375-4.816406 5.050782-2.398437.65625-4.992187-.027344-6.738281-1.824219-1.953125-2.011719-4.554688-3.121094-7.328125-3.121094-5.648438 0-10.242188 4.589844-10.242188 10.238281 0 5.648438 4.59375 10.238282 10.242188 10.238282.753906 0 1.613281-.136719 2.6875-.433594 2.800781-.742188 5.742187.316406 7.394531 2.675781 1.65625 2.355469 1.644531 5.507813-.023438 7.855469-1.546874 2.1875-2.363281 4.726562-2.363281 7.351562 0 7.050782 5.730469 12.78125 12.78125 12.78125 5.351563 0 10.164063-3.429687 11.980469-8.535156 1.035156-2.910156 3.871094-4.722656 6.96875-4.519531 3.078125.242187 5.609375 2.519531 6.171875 5.558594.8125 4.34375 4.601563 7.5 9.011719 7.5 4.257812 0 8.023437-3.023438 8.953125-7.191407.648437-2.917968 3.121093-5.074218 6.101562-5.316406.191407-.019531.378907-.023437.566407-.023437zm0 0" fill="#4c241d"/><path d="m262.003906 93.207031c-.121094 0-.234375.03125-.351562.035157-1.101563-7.722657-5.746094-14.226563-12.273438-17.902344 5.675782-2.046875 9.757813-7.429688 9.757813-13.8125 0-8.136719-6.597657-14.734375-14.734375-14.734375-3.1875 0-6.121094 1.039062-8.53125 2.761719-6.644532-11.757813-19.238282-19.707032-33.707032-19.707032-16.445312 0-30.457031 10.265625-36.070312 24.722656-4.449219-6.421874-11.847656-10.644531-20.25-10.644531-13.609375 0-24.640625 11.03125-24.640625 24.640625 0 3.902344.988281 7.542969 2.601563 10.824219-.863282-.109375-1.710938-.265625-2.601563-.265625-8.085937 0-15.027344 4.597656-18.578125 11.273438-.128906-.230469-.246094-.46875-.378906-.695313 2.964844-2.582031 4.875-6.335937 4.875-10.578125 0-7.773438-6.304688-14.078125-14.078125-14.078125-5.652344 0-10.492188 3.347656-12.734375 8.15625-2.703125-.664063-5.480469-1.117187-8.386719-1.117187-10.5625 0-19.921875 4.746093-26.375 12.109374-3.179687-3.128906-7.53125-5.070312-12.347656-5.070312-9.71875 0-17.597657 7.878906-17.597657 17.601562 0 9.71875 7.878907 17.597657 17.597657 17.597657 1.445312 0 2.832031-.222657 4.175781-.550781 3.050781 16.332031 17.328125 28.710937 34.546875 28.710937 16.75 0 30.710937-11.726563 34.265625-27.402344 3.828125 3.875 9.136719 3.507813 15.015625 3.507813h116.15625c5.335937 0 10.242187 1.039062 14.277344-1.84375 2.574219 2.816406 6.246093 4.617187 10.363281 4.617187 7.777344 0 14.078125-6.304687 14.078125-14.078125 0-7.777344-6.300781-14.078125-14.074219-14.078125zm0 0" fill="#ffec95"/><path d="m71.921875 149.3125c-18.054687 0-33.839844-11.527344-39.632813-28.175781-13.046874-.480469-23.511718-11.246094-23.511718-24.410157 0-13.46875 10.957031-24.425781 24.425781-24.425781 4.148437 0 8.140625 1.03125 11.695313 2.980469 7.558593-6.425781 17.121093-10.019531 27.023437-10.019531 1.6875 0 3.410156.121093 5.203125.375 3.914062-4.621094 9.726562-7.414063 15.917969-7.414063 9.578125 0 17.667969 6.46875 20.132812 15.269532.511719-.15625 1.023438-.296876 1.539063-.421876-.226563-1.488281-.339844-2.992187-.339844-4.503906 0-17.347656 14.117188-31.46875 31.46875-31.46875 6.742188 0 13.210938 2.175782 18.527344 6.058594 8.324218-12.480469 22.296875-20.136719 37.792968-20.136719 14.234376 0 27.570313 6.707031 36.121094 17.839844 1.972656-.589844 4.027344-.894531 6.121094-.894531 11.886719 0 21.558594 9.675781 21.558594 21.5625 0 5.296875-1.980469 10.292968-5.34375 14.136718 2.972656 3.265626 5.21875 7.125 6.582031 11.367188 9.019531 2.320312 15.707031 10.523438 15.707031 20.253906 0 11.527344-9.378906 20.90625-20.90625 20.90625-4.074218 0-8.050781-1.222656-11.433594-3.449218-3.550781 1.039062-7.097656.890624-10.136718.765624-1.003906-.039062-2.027344-.089843-3.070313-.089843l-117.527343.003906c-2.992188.03125-6.367188.035156-9.691407-.738281-6.679687 14.839844-21.394531 24.628906-38.222656 24.628906zm-34.546875-42.363281c1.300781 0 2.585938.371093 3.699219 1.089843 1.578125 1.015626 2.667969 2.636719 3.011719 4.484376 2.507812 13.40625 14.214843 23.140624 27.835937 23.140624 13.308594 0 24.660156-9.085937 27.613281-22.085937.546875-2.433594 2.382813-4.371094 4.78125-5.054687 2.386719-.683594 4.976563-.011719 6.730469 1.765624 1.359375 1.378907 3.597656 1.527344 8.71875 1.484376l117.597656-.003907c1.238281 0 2.453125.050781 3.644531.101563 3.351563.144531 5.460938.183594 6.65625-.675782 2.808594-2.007812 6.679688-1.601562 9.011719.953126 1.414063 1.542968 3.304688 2.394531 5.324219 2.394531 4.003906 0 7.253906-3.253907 7.253906-7.253907 0-3.90625-3.101562-7.097656-6.96875-7.246093-.25.023437-.449218.035156-.636718.03125-3.382813 0-6.273438-2.492188-6.753907-5.859375-.78125-5.480469-4.015625-10.191406-8.867187-12.929688-2.328125-1.308594-3.679688-3.855468-3.453125-6.515625.222656-2.65625 1.976562-4.945312 4.484375-5.851562 3.140625-1.132813 5.25-4.101563 5.25-7.386719 0-4.363281-3.546875-7.90625-7.90625-7.90625-1.621094 0-3.203125.511719-4.566406 1.488281-1.574219 1.121094-3.554688 1.527344-5.441407 1.105469-1.890625-.414062-3.515625-1.621094-4.46875-3.304688-5.660156-10.015624-16.296875-16.238281-27.761719-16.238281-13.242187 0-24.902343 7.996094-29.707031 20.371094-.914062 2.351563-3.054687 4.007813-5.5625 4.304687-2.527343.300782-4.980469-.820312-6.414062-2.894531-3.339844-4.820312-8.8125-7.703125-14.636719-7.703125-9.824219 0-17.816406 7.992188-17.816406 17.816406 0 2.613282.640625 5.242188 1.902344 7.808594 1.109374 2.253906.890624 4.9375-.570313 6.980469-1.460937 2.046875-3.902344 3.132813-6.417969 2.808594-1.011718-.140625-1.367187-.210938-1.742187-.210938-5.226563 0-10.039063 2.929688-12.550781 7.648438-1.175782 2.214843-3.46875 3.597656-5.976563 3.621093-.015625 0-.035156 0-.050781 0-2.484375 0-4.777344-1.355468-5.976563-3.535156-1.550781-2.8125-1.304687-7.019531 1.109375-9.128906.949219-.828125 2.539063-2.628906 2.539063-5.433594 0-4-3.253907-7.253906-7.253907-7.253906-2.828124 0-5.335937 1.613281-6.546874 4.214844-1.382813 2.949218-4.648438 4.519531-7.816407 3.746094-2.554687-.628907-4.699219-.921876-6.757812-.921876-8.167969 0-15.714844 3.472657-21.242188 9.78125-1.238281 1.414063-3.007812 2.253907-4.882812 2.324219-1.917969.03125-3.703125-.640625-5.039063-1.957031-2.035156-2.003906-4.71875-3.109375-7.554687-3.109375-5.9375 0-10.773438 4.835937-10.773438 10.773437 0 5.941407 4.835938 10.773438 10.777344 10.773438.746094 0 1.554687-.113281 2.542969-.355469.539062-.128906 1.085937-.195312 1.628906-.195312zm0 0" fill="#4c241d"/><path d="m235.867188 384.835938c0 2.292968-1.859376 4.15625-4.15625 4.15625-2.296876 0-4.160157-1.863282-4.160157-4.15625 0-2.296876 1.863281-4.160157 4.160157-4.160157 2.296874 0 4.15625 1.863281 4.15625 4.160157zm0 0" fill="#fff"/><path d="m44.585938 17.105469c-1.210938.328125-2.246094.9375-3.148438 1.699219-2.730469-8.695313-11.816406-13.78125-20.691406-11.378907-9.097656 2.464844-14.476563 11.839844-12.011719 20.9375 1.011719 3.730469 3.21875 6.78125 6.058594 8.976563-.027344.007812-.058594.007812-.085938.015625-5.457031 1.476562-8.683593 7.101562-7.207031 12.558593 1.480469 5.457032 7.105469 8.6875 12.5625 7.207032 5.457031-1.480469 6.867188-13.820313 7.207031-12.5625 1.476563 5.457031 7.101563 8.6875 12.558594 7.207031 5.460937-1.480469 8.6875-7.105469 7.207031-12.5625-.957031-3.523437-1.171875-5.207031 1.898438-6.039063 4.433594-1.203124 7.054687-5.769531 5.855468-10.207031-1.199218-4.433593-5.765624-7.054687-10.203124-5.851562zm0 0" fill="#ffec95"/><path d="m17.355469 64.308594c-2.941407 0-5.84375-.765625-8.460938-2.269532-3.953125-2.265624-6.789062-5.9375-7.980469-10.339843-1.195312-4.402344-.601562-9 1.667969-12.957031.582031-1.007813 1.25-1.949219 2.003907-2.804688-1.0625-1.800781-1.882813-3.746094-2.441407-5.792969-1.664062-6.160156-.835937-12.601562 2.339844-18.136719 3.175781-5.535156 8.320313-9.5 14.476563-11.171874 9.929687-2.683594 20.109374 1.269531 25.730468 9.289062 7.378906-.996094 14.671875 3.609375 16.6875 11.042969 1.058594 3.910156.53125 7.996093-1.480468 11.5-1.441407 2.515625-3.519532 4.515625-6.015626 5.835937 1.769532 8.730469-3.542968 17.484375-12.265624 19.851563-4.140626 1.109375-8.332032.609375-11.90625-1.125-1.730469 2.914062-4.214844 5.488281-7.863282 6.480469-1.484375.398437-2.992187.597656-4.492187.597656zm-1.09375-20.300782c-.996094.3125-1.582031 1.089844-1.835938 1.53125-.261719.457032-.65625 1.402344-.332031 2.589844.320312 1.1875 1.136719 1.808594 1.597656 2.070313.382813.222656 1.105469.539062 2.046875.4375.535157-.710938 1.328125-2.414063 2.375-6.382813.425781-1.628906 1.738281-6.589844 7.082031-6.609375h.019532c3.082031 0 5.84375 2.160157 6.648437 5.136719.492188 1.8125 2.382813 2.894531 4.1875 2.398438 1.8125-.492188 2.890625-2.371094 2.398438-4.1875-2.625-9.699219 2.195312-13.191407 6.699219-14.414063.800781-.214844 1.273437-1.039063 1.054687-1.835937-.222656-.792969-1.058594-1.285157-1.832031-1.046876 0 0 0 0-.003906 0-.128907.035157-.320313.148438-.523438.324219-1.742188 1.476563-4.109375 1.980469-6.308594 1.339844-2.195312-.636719-3.925781-2.328125-4.609375-4.507813-1.65625-5.269531-7.101562-8.273437-12.398437-6.835937-2.636719.714844-4.839844 2.414063-6.203125 4.789063-1.359375 2.375-1.714844 5.132812-1 7.773437.722656 2.65625 2.382812 4.386719 3.648437 5.367187 2.066406 1.601563 3.035156 4.238282 2.5 6.800782-.535156 2.554687-2.488281 4.585937-5.023437 5.21875-.0625.011718-.125.03125-.1875.042968zm0 0" fill="#4c241d"/><path d="m221.46875 81.046875c-3.769531 0-6.824219-3.054687-6.824219-6.824219 0-7.53125-6.125-13.65625-13.65625-13.65625-3.769531 0-6.824219-3.054687-6.824219-6.824218 0-3.769532 3.054688-6.828126 6.824219-6.828126 15.058594 0 27.308594 12.25 27.308594 27.308594 0 3.769532-3.058594 6.824219-6.828125 6.824219zm0 0" fill="#fff"/><path d="m146.804688 314.648438c-9.179688 0-16.640626-7.464844-16.640626-16.640626 0-3.769531 3.054688-6.828124 6.824219-6.828124 3.773438 0 6.828125 3.058593 6.828125 6.828124 0 1.648438 1.339844 2.988282 2.988282 2.988282 1.644531 0 2.984374-1.339844 2.984374-2.988282 0-3.769531 3.058594-6.828124 6.828126-6.828124 3.769531 0 6.828124 3.058593 6.828124 6.828124 0 9.175782-7.464843 16.640626-16.640624 16.640626zm0 0" fill="#4c241d"/><path d="m204.402344 289.261719c-3.769532 0-6.824219-3.058594-6.824219-6.828125 0-3.761719-3.066406-6.824219-6.828125-6.824219s-6.828125 3.0625-6.828125 6.824219c0 3.769531-3.054687 6.828125-6.824219 6.828125-3.769531 0-6.828125-3.058594-6.828125-6.828125 0-11.292969 9.1875-20.480469 20.480469-20.480469s20.480469 9.1875 20.480469 20.480469c0 3.769531-3.058594 6.828125-6.828125 6.828125zm0 0" fill="#4c241d"/><path d="m115.65625 289.261719c-3.769531 0-6.824219-3.058594-6.824219-6.828125 0-3.761719-3.066406-6.824219-6.828125-6.824219-3.761718 0-6.828125 3.0625-6.828125 6.824219 0 3.769531-3.054687 6.828125-6.824219 6.828125-3.769531 0-6.828124-3.058594-6.828124-6.828125 0-11.292969 9.1875-20.480469 20.480468-20.480469 11.292969 0 20.480469 9.1875 20.480469 20.480469 0 3.769531-3.058594 6.828125-6.828125 6.828125zm0 0" fill="#4c241d"/><path d="m71.285156 128.835938c-11.292968 0-20.480468-9.1875-20.480468-20.480469 0-3.769531 3.054687-6.828125 6.824218-6.828125 3.769532 0 6.828125 3.058594 6.828125 6.828125 0 3.761719 3.0625 6.824219 6.828125 6.824219 3.769532 0 6.824219 3.058593 6.824219 6.828124 0 3.769532-3.054687 6.828126-6.824219 6.828126zm0 0" fill="#fff"/><g fill="#4c241d"><path d="m307.175781 53.367188c-1.746093 0-3.492187-.667969-4.828125-2-2.664062-2.664063-2.664062-6.988282 0-9.652344l26.558594-26.558594c2.667969-2.667969 6.988281-2.667969 9.65625 0 2.664062 2.664062 2.664062 6.984375 0 9.652344l-26.5625 26.558594c-1.332031 1.335937-3.078125 2-4.824219 2zm0 0"/><path d="m333.738281 53.367188c-1.746093 0-3.496093-.667969-4.828125-2l-26.558594-26.558594c-2.667968-2.667969-2.667968-6.988282 0-9.652344 2.664063-2.667969 6.984376-2.667969 9.652344 0l26.558594 26.558594c2.667969 2.664062 2.667969 6.988281 0 9.652344-1.332031 1.335937-3.082031 2-4.824219 2zm0 0"/><path d="m300.347656 299.128906c-1.746094 0-3.492187-.667968-4.824218-2-2.667969-2.667968-2.667969-6.988281 0-9.65625l26.558593-26.558594c2.664063-2.664062 6.988281-2.664062 9.652344 0 2.664063 2.667969 2.664063 6.988282 0 9.652344l-26.558594 26.5625c-1.332031 1.332032-3.078125 2-4.828125 2zm0 0"/><path d="m326.910156 299.128906c-1.746094 0-3.492187-.667968-4.828125-2l-26.558593-26.5625c-2.664063-2.664062-2.664063-6.984375 0-9.652344 2.667968-2.664062 6.988281-2.664062 9.652343 0l26.558594 26.558594c2.667969 2.667969 2.667969 6.988282 0 9.65625-1.332031 1.332032-3.078125 2-4.824219 2zm0 0"/><path d="m351.175781 142.722656c-11.417969 0-20.710937-9.292968-20.710937-20.714844 0-11.421874 9.289062-20.714843 20.710937-20.714843s20.714844 9.292969 20.714844 20.714843c0 11.421876-9.292969 20.714844-20.714844 20.714844zm0-27.773437c-3.890625 0-7.058593 3.164062-7.058593 7.058593 0 3.894532 3.164062 7.058594 7.058593 7.058594s7.0625-3.164062 7.0625-7.058594c0-3.894531-3.167969-7.058593-7.0625-7.058593zm0 0"/></g><path d="m204.402344 316.566406h-20.480469c-3.769531 0-6.824219-3.054687-6.824219-6.824218 0-3.769532 3.054688-6.828126 6.824219-6.828126h20.480469c3.769531 0 6.828125 3.058594 6.828125 6.828126 0 3.769531-3.058594 6.824218-6.828125 6.824218zm0 0" fill="#e66353"/><path d="m108.832031 316.566406h-20.480469c-3.769531 0-6.828124-3.054687-6.828124-6.824218 0-3.769532 3.058593-6.828126 6.828124-6.828126h20.480469c3.769531 0 6.824219 3.058594 6.824219 6.828126 0 3.769531-3.054688 6.824218-6.824219 6.824218zm0 0" fill="#e66353"/></svg>