<svg height="512" viewBox="0 0 60 60" width="512" xmlns="http://www.w3.org/2000/svg"><g id="100---Movies" fill="none"><g id="Icons" transform="translate(1)"><path id="Shape" d="m43 58.91c0 .14 1.32.09-16.92.09-.3824923-.001757-.7304753-.221544-.8964082-.5661738s-.1207435-.7537221.1164082-1.0538262l2.4-3c.1886474-.2387374.475728-.3785972.78-.38h5.52c2.2432358 2.7497236 5.4737016 4.5121222 9 4.91z" fill="#e8edfc"/><path id="Shape" d="m33.32 37.93c-2.2399085 3.3120309-2.8989436 7.4456455-1.8 11.29l-19.64 6c-.4813742.1442155-.9950079-.0912-1.2-.55-.213631-.7803444-.73339007-1.4413216-1.44134375-1.8329555-.70795369-.391634-1.54407809-.48072-2.31865625-.2470445-.5013255.1569282-1.03860915-.1007932-1.23-.59-5.92-19.31-5.57-18.09-5.57-18.35.00461308-.4288833.2822133-.8070633.69-.94.57255285-.1749791 1.07605132-.5246309 1.44-1 .77 1.59 1.92 4 6.08 12.66.19306205.3973419.62396892.6209257 1.06.55.50893428-.2198365 1.0557305-.3387053 1.61-.35 1.1553151-.0024245 2.2093649.6587876 2.71 1.7.1145232.2408.3204738.4258895.5720915.5141435.2516176.0882539.5280615.0723624.7679085-.0441435z" fill="#a4c2f7"/><path id="Shape" d="m57.88 36.26c-.0046131.4288833-.2822133.8070633-.69.94-.5437187.1573377-1.0256426.4786203-1.38.92-2.2845213-3.5047618-6.0688244-5.7479961-10.24-6.07 3.33-1.62 9.42-4.54 9.64-4.65 2.89 9.4 2.67 8.6 2.67 8.86z" fill="#7facfa"/><path id="Shape" d="m54.88 36.26c.0005276.1611401-.0408234.3196523-.12.46-2.3149338-2.7313704-5.6213931-4.4295736-9.19-4.72l7-3.38c.03.17 2.31 7.28 2.31 7.64z" fill="#a4c2f7"/><path id="Shape" d="m58 21c.0027797.3882694-.2194455.7430498-.57.91-1.4896849.7192957-2.1159835 2.5087203-1.4 4 .2359653.4971358.0259259 1.0915024-.47 1.33-.35.17-1.56.77-10 4.82-4.8425543-.3946221-9.5215057 1.8531094-12.24 5.88l-18.32 8.8c-.239847.1165059-.5162909.1323974-.7679085.0441435-.2516177-.088254-.4575683-.2733435-.5720915-.5141435-.4927313-1.0250791-1.5227688-1.6833737-2.66-1.7-.542709.0258666-1.07553011.1548296-1.57.38-.43603108.0709257-.86693795-.1526581-1.06-.55-7.31-15.14-5.37-11.17-8.27-17.13-.23596525-.4971358-.02592592-1.0915024.47-1.33 1.48968493-.7192957 2.11598354-2.5087203 1.4-4-.11650594-.239847-.13239741-.5162909-.04414346-.7679085.08825395-.2516177.27334349-.4575683.51414346-.5720915 43.56-20.93 40.66-19.6 40.98-19.6.3882694-.00277966.7430498.21944547.91.57.7192957 1.48968493 2.5087203 2.11598354 4 1.4.239847-.11650594.5162909-.13239741.7679085-.04414346.2516177.08825395.4575683.27334349.5720915.51414346 8.79 18.29 8.33 17.22 8.33 17.56z" fill="#e8edfc"/><g fill="#cad9fc"><path id="Shape" d="m8.49 44.62c.22429418.2559906.56338986.3803257.9.33-.280373-.1575284-.5842514-.2689505-.9-.33z"/><path id="Shape" d="m49.67 3.44c-.2495756-.49031299-.8483464-.6869243-1.34-.44-.5685297.27371042-1.2088881.36119108-1.83.25.0674843.06429798.1248054.13847818.17.22 8.79 18.26 8.33 17.19 8.33 17.53.0027797.3882694-.2194455.7430498-.57.91-1.4896849.7192957-2.1159835 2.5087203-1.4 4 .2359653.4971358.0259259 1.0915024-.47 1.33-4.68 2.26 2.44-1.24-39.03 18.76.0525703.0833557.0993472.1702272.14.26.1145232.2408.3204738.4258895.5720915.5141435.2516176.0882539.5280615.0723624.7679085-.0441435 48.77-23.47 35.74-17.17 40.55-19.5.4845734-.2493745.6802449-.840836.44-1.33-.7159835-1.4912797-.0896849-3.2807043 1.4-4 .3589924-.1566131.5935081-.5083866.6-.9 0-.34.46.73-8.33-17.56z"/><circle id="Oval" cx="44.5" cy="45.5" r="13.5"/></g><ellipse id="Oval" cx="43" cy="45.5" fill="#e8edfc" rx="12" ry="13.41"/><circle id="Oval" cx="44.5" cy="37.5" fill="#56595e" r="2.5"/><circle id="Oval" cx="44.5" cy="53.5" fill="#56595e" r="2.5"/><circle id="Oval" cx="44.5" cy="37.5" fill="#7facfa" r="2.5"/><circle id="Oval" cx="44.5" cy="53.5" fill="#7facfa" r="2.5"/><circle id="Oval" cx="44.5" cy="45.5" fill="#56595e" r="2.5"/><circle id="Oval" cx="44.5" cy="45.5" fill="#7facfa" r="2.5"/><circle id="Oval" cx="37.57" cy="41.5" fill="#56595e" r="2.5"/><circle id="Oval" cx="51.43" cy="49.5" fill="#56595e" r="2.5"/><circle id="Oval" cx="37.57" cy="41.5" fill="#7facfa" r="2.5"/><circle id="Oval" cx="51.43" cy="49.5" fill="#7facfa" r="2.5"/><circle id="Oval" cx="51.43" cy="41.5" fill="#56595e" r="2.5"/><circle id="Oval" cx="37.57" cy="49.5" fill="#56595e" r="2.5"/><circle id="Oval" cx="51.43" cy="41.5" fill="#7facfa" r="2.5"/><circle id="Oval" cx="37.57" cy="49.5" fill="#7facfa" r="2.5"/></g><path id="Shape" d="m13.41 23.78-1.53.47c-.4813742.1442155-.9950079-.0912-1.2-.55-.213631-.7803444-.73339007-1.4413216-1.44134375-1.8329555-.70795369-.391634-1.54407809-.48072-2.31865625-.2470445-.50966873.1536569-1.05037437-.1188939-1.23-.62-5.92-19.31-5.57-18.09-5.57-18.35.00461308-.4288833.2822133-.8070633.69-.94.57255285-.17497914 1.07605132-.52463086 1.44-1 .19.4.41.84.68 1.42-.08270431.15026381-.1273385.31850034-.13.49 0 .26-.35-1 5.57 18.32.16741598.5130879.71177226.8007559 1.23.65.7745782-.2336755 1.6107026-.1445895 2.3186562.2470445.7079537.3916339 1.2277128 1.0526111 1.4413438 1.8329555.0034944.0413325.0211568.0801897.05.11z" fill="#fff" transform="translate(1 31)"/><g id="Layer_2" transform="translate(0 -1)"><path id="Rectangle-path" d="m1.328 34.774h2v8h-2z" fill="#fff" transform="matrix(.956 -.293 .293 .956 -11.273 2.389)"/><g fill="#428dff"><path id="Shape" d="m17.08 37.12c.3426686-.0009687.6609793-.1773272.8435047-.4673397.1825253-.2900125.2038448-.6532886.0564953-.9626603l-3.47-7.21.91-.43c.4807391-.2490986.6759032-.8355667.4402843-1.3230541-.2356189-.4874873-.8164265-.6989024-1.3102843-.4769459l-3.61 1.75c-.4202253.2035143-.6436852.6707422-.5383458 1.1256169s.5114372.7763104.9783458.7743831c.29 0 .36-.07 1.33-.53l3.47 7.21c.1738396.3356224.5220557.5445521.9.54z"/><path id="Shape" d="m22 34.86c.2408-.1145232.4258895-.3204738.5141435-.5720915.0882539-.2516176.0723624-.5280615-.0441435-.7679085l-3.9-8.11c-.2402439-.4998177-.8401823-.7102438-1.34-.47-.4998177.2402439-.7102439.8401823-.47 1.34l3.9 8.11c.1145232.2408.3204738.4258895.5720915.5141435.2516176.0882539.5280615.0723624.7679085-.0441435z"/><path id="Shape" d="m45.16 13.75.9-.44c.4807391-.2490986.6759032-.8355667.4402843-1.3230541-.2356189-.4874873-.8164265-.6989024-1.3102843-.4769459l-3.61 1.73c-.4202253.2035143-.6436852.6707422-.5383458 1.1256169s.5114372.7763104.9783458.7743831c.29 0 .37-.07 1.33-.53l3.47 7.21c.1368464.348435.4568405.5912597.8292505.6292692.37241.0380096.7348623-.1351621.9392789-.4487665.2044166-.3136045.2165606-.7151174.0314706-1.0405027z"/><path id="Shape" d="m29.66 30c.312141-.8738064.2580484-1.8366537-.15-2.67-.2384976-.4959259-.8328642-.7059653-1.33-.47-.2408.1145232-.4258895.3204738-.5141435.5720915-.0882539.2516176-.0723624.5280615.0441435.7679085.1771675.354729.202437.7662602.07 1.14-.1984348.5748279-.7242923.9729693-1.331395 1.0080366s-1.1753046-.2998794-1.438605-.8480366l-1.73-3.61c-.2630176-.4861994-.2373105-1.0776544.0669-1.5391998.3042105-.4615453.8376156-.71837 1.3881309-.6683593s1.0289088.3987506 1.2449691.9075591c.1491777.3319233.4668917.5566068.8295547.5866508.362663.0300439.7130189-.1392947.9147829-.4421451s.2230824-.6913995.0556624-1.0145057c-.8950827-1.6187437-2.8952185-2.2615247-4.5657565-1.4672911s-2.4346444 2.7512344-1.7442435 4.4672911l1.74 3.6c.6083752 1.2733841 1.9219955 2.0568168 3.3315122 1.9868873 1.4095168-.0699295 2.6391412-.9795387 3.1184878-2.3068873z"/><path id="Shape" d="m37.25 25.65-5-1.77 1.75-5.08c.1790902-.5218843-.098358-1.0902055-.62-1.27-.2519365-.0855507-.5275791-.0671743-.7659296.0510626-.2383504.1182368-.4197553.3265848-.5040704.5789374l-1.5 4.45-1.16-2.4c-.1491777-.3319233-.4668917-.5566068-.8295547-.5866508-.362663-.0300439-.7130189.1392947-.9147829.4421451s-.2230824.6913995-.0556624 1.0145057l3.9 8.11c.1491777.3319233.4668917.5566068.8295547.5866508.362663.0300439.7130189-.1392947.9147829-.4421451s.2230824-.6913995.0556624-1.0145057l-1.15-2.4 4.41 1.61c.3358297.1232566.7119057.0579875.9865639-.1712212s.4061715-.5875347.345-.94c-.0611715-.3524654-.3057342-.6455222-.6415639-.7687788z"/><path id="Shape" d="m36.54 21.22 2.17 4.5c.1654027.3472838.5153406.5689111.9.57.32 0 .18 0 4-1.83.4998177-.2402439.7102438-.8401823.47-1.34-.2402439-.4998177-.8401823-.7102438-1.34-.47l-2.66 1.35-1.3-2.7 1.8-.87c.4959259-.2384976.7059653-.8328642.47-1.33-.1145232-.2408-.3204738-.4258895-.5720915-.5141435-.2516176-.0882539-.5280615-.0723624-.7679085.0441435l-1.8.87-.91-1.85 2.71-1.3c.4998177-.2402439.7102439-.8401823.47-1.34s-.8401823-.7102439-1.34-.47l-3.6 1.74c-.4959259.2384976-.7059653.8328642-.47 1.33z"/><path id="Shape" d="m58.86 23.8c.4790096-.2290931.8472597-.6392624 1.0235862-1.1401045.1763264-.5008421.1462551-1.0512444-.0835862-1.5298955l-8.23-17.13c-.2290931-.47900962-.6392624-.84725972-1.1401045-1.02358616-.5008421-.17632645-1.0512444-.1462551-1.5298955.08358616-.9941391.48002544-2.1892042.06376681-2.67-.93-.3352304-.69393246-1.0393449-1.1335177-1.81-1.13-.67 0 1.93-1.14-41.42 19.7-.47900962.2290931-.84725972.6392624-1.02358616 1.1401045-.17632645.5008421-.1462551 1.0512444.08358616 1.5298955.45488071.9812157.04732735 2.1462867-.92 2.63-.70773851.3369416-1.15340502 1.056263-1.14 1.84 0 .59 0 .48 2 4.67-.15915556.1076979-.33478748.1887588-.52.24-1.79.57-1.75 3.25-.33 3.25.32173556.012956.63002583-.1298052.82826094-.3835461.19823511-.253741.26215879-.5874136.17173906-.8964539.27758887-.0899134.54556888-.2071546.8-.35l5.48 11.47c.48446943.9899714 1.6785375 1.4014106 2.67.92.9986497-.4392202 2.1667666-.027973 2.67.94.2290931.4790096.6392624.8472597 1.1401045 1.0235862.5008421.1763264 1.0512444.1462551 1.5298955-.0835862l15.56-7.51c-1.0773865 2.6680582-1.3248329 5.5990791-.71 8.41l-18.69 5.76c-.3019333-1.0085985-.9959271-1.8538772-1.9264443-2.3463934-.93051723-.4925162-2.01974098-.5910819-3.0235557-.2736066-.22-.88 1.07 3.5-3.19-10.38-.17529469-.5110565-.72482677-.7904645-1.24104339-.6310049s-.81242957.7001187-.66895661 1.2210049l3.18 10.37c.32638054 1.0493753 1.43830597 1.6388297 2.49 1.32 1.03645549-.3015118 2.125168.2738241 2.46 1.3.3221101 1.0533967 1.435363 1.6480258 2.49 1.33l18.72-5.75c.327301.8825483.7357152 1.7328534 1.22 2.54h-3.63c-.6068554.0003792-1.1807154.2762735-1.56.75l-2.4 3c-.4804538.6000864-.5744485 1.4224384-.2417969 2.1154625.3326516.6930242 1.0330711 1.1340574 1.8017969 1.1345375 18.25 0 16.92 0 17.22-.06 5.3545762.4420221 10.5141698-2.1150537 13.4053332-6.6436345s3.0392182-10.285153.3846668-14.9563655c.1255432-.0759938.2598626-.1364376.4-.18.826482-.2646862 1.3879578-1.032171 1.39-1.9 0-.45.12.06-2.48-8.4.7005495-.5828731.9184822-1.5656261.53-2.39-.4800254-.9941391-.0637668-2.1892042.93-2.67zm-31.78 35.2 2.4-3h5.09c1.0356808 1.1900146 2.2583722 2.2032948 3.62 3zm18.42 0c-5.0557781 0-9.6137317-3.0455272-11.5484942-7.7164571s-.8653155-10.0474027 2.7096594-13.6223777c3.574975-3.5749749 8.9514478-4.6444219 13.6223777-2.7096594s7.7164571 6.4927161 7.7164571 11.5484942c-.011012 6.8989929-5.6010071 12.488988-12.5 12.5zm12.41-21.76c-.3313685.1000819-.6475963.2447393-.94.43-1.837985-2.3799692-4.3722276-4.1277227-7.25-5l5.88-2.87zm-1.79-9.91-9.78 4.67c-4.9861695-.3064873-9.7745412 1.9949593-12.65 6.08l-18.12 8.75c-.9725974-1.9761531-3.3597463-2.794221-5.34-1.83l-8.23-17.16c.95625256-.4599914 1.69054167-1.2810991 2.0412557-2.2826033.35071403-1.0015043.28910921-2.1013239-.1712557-3.0573967l40.56-19.5c.9615915 1.98753362 3.3517217 2.82005089 5.34 1.86l8.23 17.14c-1.989412.9541047-2.8305783 3.3389006-1.88 5.33z"/><path id="Shape" d="m3.29 38.48c-.11921498-.3865843-.45960727-.6632577-.86239518-.7009612-.40278791-.0377034-.78861371.1709914-.97750247.5287352-.18888877.3577439-.14362543.7940538.11467617 1.1054056.25830159.3113517.67875059.4364026 1.06522148.3168204.52725077-.1631424.82264146-.7225945.66-1.25z"/><path id="Shape" d="m45.5 42c1.9329966 0 3.5-1.5670034 3.5-3.5s-1.5670034-3.5-3.5-3.5-3.5 1.5670034-3.5 3.5 1.5670034 3.5 3.5 3.5zm0-5c.8284271 0 1.5.6715729 1.5 1.5s-.6715729 1.5-1.5 1.5-1.5-.6715729-1.5-1.5.6715729-1.5 1.5-1.5z"/><path id="Shape" d="m45.5 51c-1.9329966 0-3.5 1.5670034-3.5 3.5s1.5670034 3.5 3.5 3.5 3.5-1.5670034 3.5-3.5-1.5670034-3.5-3.5-3.5zm0 5c-.8284271 0-1.5-.6715729-1.5-1.5s.6715729-1.5 1.5-1.5 1.5.6715729 1.5 1.5-.6715729 1.5-1.5 1.5z"/><path id="Shape" d="m42 46.5c0 1.9329966 1.5670034 3.5 3.5 3.5s3.5-1.5670034 3.5-3.5-1.5670034-3.5-3.5-3.5-3.5 1.5670034-3.5 3.5zm5 0c0 .8284271-.6715729 1.5-1.5 1.5s-1.5-.6715729-1.5-1.5.6715729-1.5 1.5-1.5 1.5.6715729 1.5 1.5z"/><path id="Shape" d="m36.82 45.53c1.2258087.7084157 2.7576754.6085621 3.8811469-.2529898 1.1234714-.8615519 1.6172429-2.3150911 1.2510224-3.6826957s-1.5202937-2.3798799-2.9239671-2.5647069c-1.4036733-.1848269-2.780447.4942022-3.4882022 1.7203924-.9659397 1.6734964-.3929757 3.8131588 1.28 4.78zm.45-3.78c.2910911-.5391257.8808085-.8470235 1.4895675-.7777193.608759.0693043 1.1141773.5018781 1.2766363 1.0926382.1624591.5907602-.0507012 1.2209431-.5384215 1.5917792-.4877204.3708361-1.1519518.4077741-1.6777823.0933019-.6846606-.4153563-.926002-1.2929615-.55-2z"/><path id="Shape" d="m54.18 47.47c-1.2258087-.7084157-2.7576754-.6085621-3.8811469.2529898-1.1234714.8615519-1.6172429 2.3150911-1.2510224 3.6826957s1.5202937 2.3798799 2.9239671 2.5647069c1.4036733.1848269 2.780447-.4942022 3.4882022-1.7203924.9659397-1.6734964.3929757-3.8131588-1.28-4.78zm-.45 3.78c-.2910911.5391257-.8808085.8470235-1.4895675.7777193-.608759-.0693043-1.1141773-.5018781-1.2766363-1.0926382-.1624591-.5907602.0507012-1.2209431.5384215-1.5917792.4877204-.3708361 1.1519518-.4077741 1.6777823-.0933019.6846606.4153563.926002 1.2929615.55 2z"/><path id="Shape" d="m50.68 39.47c-1.2261902.7077552-1.9052193 2.0845289-1.7203924 3.4882022.184827 1.4036734 1.1971023 2.5577466 2.5647069 2.9239671s2.8211438-.127551 3.6826957-1.2510224c.8615519-1.1234715.9614055-2.6553382.2529898-3.8811469-.9668412-1.6729757-3.1065036-2.2459397-4.78-1.28zm3 2.28c.3144722.5258305.2775342 1.1900619-.0933019 1.6777823-.3708361.4877203-1.001019.7008806-1.5917792.5384215-.5907601-.162459-1.0233339-.6678773-1.0926382-1.2766363-.0693042-.608759.2385936-1.1984764.7777193-1.4895675.7186678-.4088386 1.6324921-.1636662 2.05.55z"/><path id="Shape" d="m41.6 48.75c-.7077552-1.2261902-2.0845289-1.9052193-3.4882022-1.7203924-1.4036734.184827-2.5577466 1.1971023-2.9239671 2.5647069s.127551 2.8211438 1.2510224 3.6826957c1.1234715.8615519 2.6553382.9614055 3.8811469.2529898 1.6729757-.9668412 2.2459397-3.1065036 1.28-4.78zm-2.28 3c-.5258305.3144722-1.1900619.2775342-1.6777823-.0933019-.4877203-.3708361-.7008806-1.001019-.5384215-1.5917792.162459-.5907601.6678773-1.0233339 1.2766363-1.0926382.608759-.0693042 1.1984764.2385936 1.4895675.7777193.4088386.7186678.1636662 1.6324921-.55 2.05z"/><path id="Shape" d="m18.05 40.1-1.84.9c-.4998177.2374825-.7124824.8351823-.475 1.335.2374825.4998177.8351823.7124824 1.335.475l1.85-.89c.4807391-.2490986.6759032-.8355667.4402843-1.3230541-.2356189-.4874873-.8164265-.6989024-1.3102843-.4769459z"/><path id="Shape" d="m23.58 37.43-1.84.89c-.3319233.1491777-.5566068.4668917-.5866508.8295547-.0300439.362663.1392947.7130189.4421451.9147829s.6913995.2230824 1.0145057.0556624l1.84-.88c.4998177-.2402439.7102438-.8401823.4699999-1.34-.2402438-.4998177-.8401822-.7102438-1.3399999-.47z"/><path id="Shape" d="m34.65 32.11-1.84.89c-.4959259.2384976-.7059653.8328642-.47 1.33.1145232.2408.3204738.4258895.5720915.5141435.2516176.0882539.5280615.0723624.7679085-.0441435l1.84-.89c.4997404-.2347915.7146165-.8301775.48-1.33-.1144525-.2434134-.3221387-.4304564-.5761627-.5188944-.254024-.0884379-.5329648-.0708133-.7738373.0488944z"/><path id="Shape" d="m29.12 34.77-1.85.89c-.4807391.2490986-.6759032.8355667-.4402843 1.3230541.2356189.4874873.8164265.6989024 1.3102843.4769459l1.86-.88c.2390365-.1163297.4219154-.3230506.5082298-.5744883.0863144-.2514376.0689596-.5268955-.0482298-.7655117-.1145232-.2408-.3204738-.4258895-.5720915-.5141435-.2516176-.0882539-.5280615-.0723624-.7679085.0441435z"/><path id="Shape" d="m45.72 26.79-1.84.89c-.348435.1368464-.5912597.4568405-.6292692.8292505-.0380096.37241.1351621.7348623.4487665.9392789.3136045.2044166.7151174.2165606 1.0405027.0314706l1.85-.89c.3319233-.1491777.5566068-.4668917.5866508-.8295547.0300439-.362663-.1392947-.7130189-.4421451-.9147829s-.6913995-.2230824-1.0145057-.0556624z"/><path id="Shape" d="m40.19 29.45-1.85.89c-.4807391.2490986-.6759032.8355667-.4402843 1.3230541.2356189.4874873.8164265.6989024 1.3102843.4769459l1.84-.89c.4559668-.2593691.6340107-.8269887.4078664-1.300314-.2261442-.4733252-.7795998-.6914507-1.2678664-.499686z"/><path id="Shape" d="m49.37 13.27c-.2408.1145232-.4258895.3204738-.5141435.5720915-.0882539.2516176-.0723624.5280615.0441435.7679085l.88 1.84c.1554105.3233254.4715078.5391798.8292211.566253.3577132.0270732.7026972-.1387479.905-.435.2023027-.2962522.2311894-.6779276.0757789-1.001253l-.89-1.84c-.2384976-.4959259-.8328642-.7059653-1.33-.47z"/><path id="Shape" d="m51.56 20.14c.3172677.5337043.5754571 1.1003797.77 1.69.0775604.2872901.2790387.5251136.5496761.6488336s.5823152.1204821.8503239-.0088336c.4277756-.2084114.6494447-.6893915.53-1.15-.2335495-.7106199-.5349385-1.3971171-.9-2.05-.1491777-.3319233-.4668917-.5566068-.8295547-.5866508-.362663-.0300439-.7130189.1392947-.9147829.4421451s-.2230824.6913995-.0556624 1.0145057z"/><path id="Shape" d="m48.93 10.05c-.2772423-.71208194-.6470912-1.38453462-1.1-2-.1709706-.20303641-.4156482-.32977003-.6801252-.35227871s-.5270523.06105448-.7298748.23227871c-.4194649.35229463-.4774263.97649403-.13 1.4.3381927.49909478.6167575 1.0360873.83 1.6.1163297.2390365.3230506.4219154.5744883.5082298.2514376.0863144.5268955.0689596.7655117-.0482298.2408-.1145232.4258895-.3204738.5141435-.5720915.0882539-.2516176.0723624-.5280615-.0441435-.7679085z"/><path id="Shape" d="m51.26 24.13-1.85.87c-.3233254.1554105-.5391798.4715078-.566253.8292211-.0270732.3577132.1387479.7026972.435.905.2962522.2023027.6779276.2311894 1.001253.0757789l1.88-.91c.4826806-.2455629.6821719-.8307374.45-1.32-.1180802-.2398973-.3273153-.4225148-.5809771-.5070687s-.5306203-.064001-.7690229.0570687z"/><path id="Shape" d="m19.8 20.39 1.84-.88c.4998177-.2402439.7102438-.8401823.47-1.34-.2402439-.4998177-.8401823-.7102439-1.34-.47l-1.84.89c-.3319233.1491777-.5566068.4668917-.5866508.8295547-.0300439.362663.1392947.7130189.4421451.9147829s.6913995.2230824 1.0145057.0556624z"/><path id="Shape" d="m25.33 17.73 1.84-.89c.4559668-.2593691.6340107-.8269887.4078664-1.300314-.2261442-.4733252-.7795998-.6914507-1.2678664-.499686l-1.85.89c-.3319233.1491777-.5566068.4668917-.5866508.8295547-.0300439.362663.1392947.7130189.4421451.9147829s.6913995.2230824 1.0145057.0556624z"/><path id="Shape" d="m36.4 12.41 1.84-.89c.348435-.1368464.5912597-.4568405.6292692-.8292505.0380096-.37241-.1351621-.73486226-.4487665-.93927888-.3136045-.20441661-.7151174-.21656061-1.0405027-.03147062l-1.85.89c-.4959259.2384976-.7059653.8328642-.47 1.33.1145232.2408.3204738.4258895.5720915.5141435.2516176.0882539.5280615.0723624.7679085-.0441435z"/><path id="Shape" d="m8.74 25.71 1.83-.88c.5053405-.2402439.7202439-.8446595.48-1.35s-.8446595-.7202439-1.35-.48l-1.84.88c-.49212644.2421629-.69735317.8355359-.46 1.33.10898515.2461187.31258746.4379093.564773.5320084.25218555.094099.53165713.0825599.775227-.0320084z"/><path id="Shape" d="m30.86 15.07 1.85-.89c.4959259-.2384976.7059653-.8328642.47-1.33-.1145232-.2408-.3204738-.4258895-.5720915-.5141435-.2516176-.0882539-.5280615-.0723624-.7679085.0441435l-1.84.89c-.4559668.2593691-.6340107.8269887-.4078664 1.300314.2261442.4733252.7795998.6914507 1.2678664.499686z"/><path id="Shape" d="m14.26 23.05 1.84-.88c.3233254-.1536242.5401328-.4680708.568753-.8248909s-.1352949-.7018042-.43-.905c-.2947052-.2031959-.6754276-.2337333-.998753-.0801091l-1.85.89c-.2390365.1163297-.4219154.3230506-.5082298.5744883-.0863144.2514376-.0689596.5268955.0482298.7655117.2421629.4921264.8355359.6973532 1.33.46z"/><path id="Shape" d="m11.09 35.21-.88-1.84c-.1554105-.3233254-.47150781-.5391798-.82922105-.566253-.35771325-.0270732-.7026973.1387478-.90500001.435-.20230271.2962521-.23118948.6779276-.07577894 1.001253l.89 1.84c.14917765.3319233.46689169.5566068.8295547.5866508.362663.0300439.7130189-.1392947.9147829-.4421451s.2230824-.6913995.0556624-1.0145057z"/><path id="Shape" d="m12.87 38.9c-.1163297-.2390365-.3230506-.4219154-.5744883-.5082298-.2514376-.0863144-.5268955-.0689596-.7655117.0482298-.4921264.2421629-.6973532.8355359-.46 1.33.2780403.7097312.6442479 1.3816717 1.09 2 .2908101.3544452.7854009.4657282 1.2.27.2781107-.1326547.4795379-.3861123.5459664-.6869944.0664285-.3008822-.0095601-.6155874-.2059664-.8530056-.3377222-.4993747-.6162578-1.0363106-.83-1.6z"/><path id="Shape" d="m41.93 9.75 1.85-.89c.3319233-.14917765.5566068-.46689169.5866508-.82955468.0300439-.36266298-.1392947-.71301888-.4421451-.91478292s-.6913995-.22308237-1.0145057-.0556624l-1.84.88c-.2408.11452324-.4258895.32047383-.5141435.57209147-.0882539.25161765-.0723624.52806157.0441435.76790853.2384976.49592592.8328642.70596525 1.33.47z"/><path id="Shape" d="m8.43 29.68c-.30925663-.5329804-.56388252-1.0958376-.76-1.68-.13530977-.5357162-.67928379-.8603097-1.215-.725-.5357162.1353098-.86030975.6792838-.725 1.215.23009042.7151365.53161156 1.4052849.9 2.06.24909865.4807391.83556672.6759032 1.32305408.4402843s.69890242-.8164265.47694592-1.3102843z"/></g></g></g></svg>